<svg id="visual" viewBox="0 0 1920 1080" width="1920" height="1080" xmlns="http://www.w3.org/2000/svg" xmlns:xlink="http://www.w3.org/1999/xlink" version="1.1"><g stroke-width="1" stroke-linejoin="bevel"><path d="M891.3 574L824.3 683L1078.7 715Z" fill="#f9ca69" stroke="#f9ca69"></path><path d="M1078.7 715L1036.7 506L891.3 574Z" fill="#fcae7b" stroke="#fcae7b"></path><path d="M824.3 683L860.3 915L1078.7 715Z" fill="#fdb179" stroke="#fdb179"></path><path d="M860.3 915L1066.7 913L1078.7 715Z" fill="#fac66b" stroke="#fac66b"></path><path d="M623 574L661 752L824.3 683Z" fill="#fcc26d" stroke="#fcc26d"></path><path d="M824.3 683L661 752L860.3 915Z" fill="#f7ce68" stroke="#f7ce68"></path><path d="M1262 380L1034.7 361L1036.7 506Z" fill="#fdb873" stroke="#fdb873"></path><path d="M1036.7 506L863.3 334L891.3 574Z" fill="#fdbb71" stroke="#fdbb71"></path><path d="M891.3 574L623 574L824.3 683Z" fill="#fcae7b" stroke="#fcae7b"></path><path d="M1302 757L1272 564L1078.7 715Z" fill="#fdb179" stroke="#fdb179"></path><path d="M1078.7 715L1272 564L1036.7 506Z" fill="#fdbb71" stroke="#fdbb71"></path><path d="M863.3 334L623 574L891.3 574Z" fill="#fbab7e" stroke="#fbab7e"></path><path d="M1244 931L1302 757L1078.7 715Z" fill="#fdb476" stroke="#fdb476"></path><path d="M1034.7 361L863.3 334L1036.7 506Z" fill="#fdb179" stroke="#fdb179"></path><path d="M1103.7 1080L1244 931L1066.7 913Z" fill="#fdb873" stroke="#fdb873"></path><path d="M1066.7 913L1244 931L1078.7 715Z" fill="#f7ce68" stroke="#f7ce68"></path><path d="M661 752L655 928L860.3 915Z" fill="#fcae7b" stroke="#fcae7b"></path><path d="M860.3 915L867.3 1080L1066.7 913Z" fill="#fcc26d" stroke="#fcc26d"></path><path d="M465.7 875L655 928L661 752Z" fill="#fdb476" stroke="#fdb476"></path><path d="M655 928L867.3 1080L860.3 915Z" fill="#fdb179" stroke="#fdb179"></path><path d="M867.3 1080L1103.7 1080L1066.7 913Z" fill="#fdbb71" stroke="#fdbb71"></path><path d="M1467.3 379L1262 380L1272 564Z" fill="#fac66b" stroke="#fac66b"></path><path d="M1272 564L1262 380L1036.7 506Z" fill="#fac66b" stroke="#fac66b"></path><path d="M1103.7 178L824.3 174L863.3 334Z" fill="#fac66b" stroke="#fac66b"></path><path d="M863.3 334L657 329L623 574Z" fill="#fac66b" stroke="#fac66b"></path><path d="M655 928L648 1080L867.3 1080Z" fill="#fcc26d" stroke="#fcc26d"></path><path d="M428.7 1080L648 1080L655 928Z" fill="#f7ce68" stroke="#f7ce68"></path><path d="M1492.3 930L1462.3 720L1302 757Z" fill="#fdb873" stroke="#fdb873"></path><path d="M1302 757L1462.3 720L1272 564Z" fill="#fdbb71" stroke="#fdbb71"></path><path d="M1492.3 930L1302 757L1244 931Z" fill="#fac66b" stroke="#fac66b"></path><path d="M1103.7 1080L1282 1080L1244 931Z" fill="#fdbb71" stroke="#fdbb71"></path><path d="M657 329L461.7 517L623 574Z" fill="#f7ce68" stroke="#f7ce68"></path><path d="M623 574L415.7 754L661 752Z" fill="#fcae7b" stroke="#fcae7b"></path><path d="M415.7 754L465.7 875L661 752Z" fill="#fdb873" stroke="#fdb873"></path><path d="M863.3 334L824.3 174L657 329Z" fill="#fdb179" stroke="#fdb179"></path><path d="M1103.7 178L863.3 334L1034.7 361Z" fill="#fdb476" stroke="#fdb476"></path><path d="M1262 380L1103.7 178L1034.7 361Z" fill="#fdb873" stroke="#fdb873"></path><path d="M461.7 517L415.7 754L623 574Z" fill="#fbab7e" stroke="#fbab7e"></path><path d="M1462.3 720L1493.3 546L1272 564Z" fill="#f7ce68" stroke="#f7ce68"></path><path d="M1262 380L1296 191L1103.7 178Z" fill="#fdb873" stroke="#fdb873"></path><path d="M1282 1080L1492.3 930L1244 931Z" fill="#fac66b" stroke="#fac66b"></path><path d="M1462.3 720L1672.7 720L1493.3 546Z" fill="#fdbb71" stroke="#fdbb71"></path><path d="M1493.3 546L1467.3 379L1272 564Z" fill="#fdb179" stroke="#fdb179"></path><path d="M643 0L647 170L824.3 174Z" fill="#fdbb71" stroke="#fdbb71"></path><path d="M824.3 174L647 170L657 329Z" fill="#f7ce68" stroke="#f7ce68"></path><path d="M657 329L389.7 340L461.7 517Z" fill="#fdbb71" stroke="#fdbb71"></path><path d="M1467.3 379L1296 191L1262 380Z" fill="#f9ca69" stroke="#f9ca69"></path><path d="M1282 1080L1472.3 1080L1492.3 930Z" fill="#fbab7e" stroke="#fbab7e"></path><path d="M208.3 907L428.7 1080L465.7 875Z" fill="#fdbb71" stroke="#fdbb71"></path><path d="M465.7 875L428.7 1080L655 928Z" fill="#fcae7b" stroke="#fcae7b"></path><path d="M414.7 178L389.7 340L657 329Z" fill="#fdb179" stroke="#fdb179"></path><path d="M461.7 517L237.3 536L415.7 754Z" fill="#fdb179" stroke="#fdb179"></path><path d="M415.7 754L208.3 907L465.7 875Z" fill="#f7ce68" stroke="#f7ce68"></path><path d="M1287 0L1039.7 0L1103.7 178Z" fill="#fcc26d" stroke="#fcc26d"></path><path d="M1103.7 178L1039.7 0L824.3 174Z" fill="#f9ca69" stroke="#f9ca69"></path><path d="M1039.7 0L854.3 0L824.3 174Z" fill="#fdb476" stroke="#fdb476"></path><path d="M647 170L414.7 178L657 329Z" fill="#fdbb71" stroke="#fdbb71"></path><path d="M1669.7 894L1672.7 720L1462.3 720Z" fill="#fdb476" stroke="#fdb476"></path><path d="M1493.3 546L1737.7 381L1467.3 379Z" fill="#fcae7b" stroke="#fcae7b"></path><path d="M1669.7 894L1462.3 720L1492.3 930Z" fill="#fdb476" stroke="#fdb476"></path><path d="M240.3 393L237.3 536L461.7 517Z" fill="#fac66b" stroke="#fac66b"></path><path d="M423.7 0L414.7 178L647 170Z" fill="#fdbb71" stroke="#fdbb71"></path><path d="M389.7 340L240.3 393L461.7 517Z" fill="#fdbf6f" stroke="#fdbf6f"></path><path d="M1686.7 1080L1669.7 894L1492.3 930Z" fill="#f9ca69" stroke="#f9ca69"></path><path d="M237.3 536L204.3 709L415.7 754Z" fill="#fbab7e" stroke="#fbab7e"></path><path d="M854.3 0L643 0L824.3 174Z" fill="#f9ca69" stroke="#f9ca69"></path><path d="M1296 191L1287 0L1103.7 178Z" fill="#fcae7b" stroke="#fcae7b"></path><path d="M1496.3 0L1287 0L1296 191Z" fill="#fdb476" stroke="#fdb476"></path><path d="M1523.3 151L1296 191L1467.3 379Z" fill="#fbab7e" stroke="#fbab7e"></path><path d="M194.3 145L240.3 393L389.7 340Z" fill="#fcc26d" stroke="#fcc26d"></path><path d="M0 576L0 742L204.3 709Z" fill="#fdb179" stroke="#fdb179"></path><path d="M204.3 709L208.3 907L415.7 754Z" fill="#f9ca69" stroke="#f9ca69"></path><path d="M1711.7 215L1523.3 151L1467.3 379Z" fill="#fdb179" stroke="#fdb179"></path><path d="M1920 755L1744.7 552L1672.7 720Z" fill="#fbab7e" stroke="#fbab7e"></path><path d="M1672.7 720L1744.7 552L1493.3 546Z" fill="#fdb476" stroke="#fdb476"></path><path d="M1472.3 1080L1686.7 1080L1492.3 930Z" fill="#f9ca69" stroke="#f9ca69"></path><path d="M1669.7 894L1920 755L1672.7 720Z" fill="#fbab7e" stroke="#fbab7e"></path><path d="M1744.7 552L1737.7 381L1493.3 546Z" fill="#f9ca69" stroke="#f9ca69"></path><path d="M643 0L423.7 0L647 170Z" fill="#f7ce68" stroke="#f7ce68"></path><path d="M414.7 178L194.3 145L389.7 340Z" fill="#f7ce68" stroke="#f7ce68"></path><path d="M0 887L173.3 1080L208.3 907Z" fill="#fdbf6f" stroke="#fdbf6f"></path><path d="M208.3 907L173.3 1080L428.7 1080Z" fill="#fcc26d" stroke="#fcc26d"></path><path d="M1676.7 0L1496.3 0L1523.3 151Z" fill="#f7ce68" stroke="#f7ce68"></path><path d="M1523.3 151L1496.3 0L1296 191Z" fill="#fcc26d" stroke="#fcc26d"></path><path d="M1737.7 381L1711.7 215L1467.3 379Z" fill="#fac66b" stroke="#fac66b"></path><path d="M212.3 0L194.3 145L414.7 178Z" fill="#fdbb71" stroke="#fdbb71"></path><path d="M0 576L204.3 709L237.3 536Z" fill="#fac66b" stroke="#fac66b"></path><path d="M204.3 709L0 742L208.3 907Z" fill="#fcc26d" stroke="#fcc26d"></path><path d="M0 576L237.3 536L0 378Z" fill="#fdbb71" stroke="#fdbb71"></path><path d="M0 378L237.3 536L240.3 393Z" fill="#f9ca69" stroke="#f9ca69"></path><path d="M1920 879L1920 755L1669.7 894Z" fill="#fdb873" stroke="#fdb873"></path><path d="M1744.7 552L1920 556L1737.7 381Z" fill="#fdb873" stroke="#fdb873"></path><path d="M1737.7 381L1920 322L1711.7 215Z" fill="#f7ce68" stroke="#f7ce68"></path><path d="M0 742L0 887L208.3 907Z" fill="#f7ce68" stroke="#f7ce68"></path><path d="M1920 755L1920 556L1744.7 552Z" fill="#fdb476" stroke="#fdb476"></path><path d="M1686.7 1080L1920 879L1669.7 894Z" fill="#fbab7e" stroke="#fbab7e"></path><path d="M1920 144L1676.7 0L1711.7 215Z" fill="#fdbb71" stroke="#fdbb71"></path><path d="M1711.7 215L1676.7 0L1523.3 151Z" fill="#f7ce68" stroke="#f7ce68"></path><path d="M194.3 145L0 378L240.3 393Z" fill="#f7ce68" stroke="#f7ce68"></path><path d="M423.7 0L212.3 0L414.7 178Z" fill="#fdb476" stroke="#fdb476"></path><path d="M194.3 145L0 157L0 378Z" fill="#fac66b" stroke="#fac66b"></path><path d="M0 887L0 1080L173.3 1080Z" fill="#fdb179" stroke="#fdb179"></path><path d="M1920 556L1920 322L1737.7 381Z" fill="#fdb873" stroke="#fdb873"></path><path d="M1686.7 1080L1920 1080L1920 879Z" fill="#fcae7b" stroke="#fcae7b"></path><path d="M0 0L0 157L194.3 145Z" fill="#fdb873" stroke="#fdb873"></path><path d="M1920 322L1920 144L1711.7 215Z" fill="#fdb179" stroke="#fdb179"></path><path d="M212.3 0L0 0L194.3 145Z" fill="#fdb873" stroke="#fdb873"></path><path d="M1920 144L1920 0L1676.7 0Z" fill="#fdbf6f" stroke="#fdbf6f"></path></g></svg>